{"title":"Angel.Of.The.Skies.2013.DVDRiP.Xvid.AC3-MiLLENiUM","uid":9333572,"size":1533009158,"categoryP":"video","categoryS":"movies","magnet":"?xt=urn:btih:e797a1e6f604e61f4169b05555cc0c5f28a345c2&amp;dn=Angel.Of.The.Skies.2013.DVDRiP.Xvid.AC3-MiLLENiUM&amp;tr=udp%3A%2F%2Ftracker.openbittorrent.com%3A80&amp;tr=udp%3A%2F%2Fopen.demonii.com%3A1337&amp;tr=udp%3A%2F%2Ftracker.coppersurfer.tk%3A6969&amp;tr=udp%3A%2F%2Fexodus.desync.com%3A6969","seeders":0,"leechers":0,"uploader":"Acesn8s","files":-1,"time":1386810619,"description":"Angel.Of.The.Skies.2013.DVDRiP.Xvid.AC3-MiLLENiUM\n\n\nSource                                   : DVDR [thanks]\nFormat                                   : AVI\nFormat/Info                              : Audio Video Interleave\nFile size                                : 1.42 GiB\nDuration                                 : 1h 37mn\nOverall bit rate                         : 2 079 Kbps\nWriting application                      : VirtualDubMod 1.5.10.2 (build 2540/release)\nWriting library                          : VirtualDubMod build 2540/release\n\nVideo\nID                                       : 0\nFormat                                   : MPEG-4 Visual\nFormat profile                           : Advanced Simple@L5\nFormat settings, BVOP                    : 2\nFormat settings, QPel                    : No\nFormat settings, GMC                     : No warppoints\nFormat settings, Matrix                  : Default (H.263)\nMuxing mode                              : Packed bitstream\nCodec ID                                 : XVID\nCodec ID/Hint                            : XviD\nDuration                                 : 1h 37mn\nBit rate                                 : 1 619 Kbps\nWidth                                    : 720 pixels\nHeight                                   : 304 pixels\nDisplay aspect ratio                     : 2.35:1\nFrame rate                               : 29.970 fps\nColor space                              : YUV\nChroma subsampling                       : 4:2:0\nBit depth                                : 8 bits\nScan type                                : Progressive\nCompression mode                         : Lossy\nBits/(Pixel*Frame)                       : 0.247\nStream size                              : 1.10 GiB (78%)\nWriting library                          : XviD 64\n\nAudio\nID                                       : 1\nFormat                                   : AC-3\nFormat/Info                              : Audio Coding 3\nMode extension                           : CM (complete main)\nCodec ID                                 : 2000\nDuration                                 : 1h 37mn\nBit rate mode                            : Constant\nBit rate                                 : 448 Kbps\nChannel(s)                               : 6 channels\nChannel positions                        : Front: L C R, Side: L R, LFE\nSampling rate                            : 48.0 KHz\nBit depth                                : 16 bits\nCompression mode                         : Lossy\nStream size                              : 312 MiB (22%)\nAlignment                                : Split accross interleaves\nInterleave, duration                     : 33 ms (1.00 video frame)\nInterleave, preload duration             : 500 ms\n\nIMDb:\n &lt;a href=&quot;\nhttp://www.imdb.com/title/tt3160230/&quot; rel=&quot;nofollow&quot; target=&quot;_NEW&quot;&gt;\nhttp://www.imdb.com/title/tt3160230/&lt;/a&gt;\n\nScreens :\n &lt;a href=&quot;\nhttp://s24.postimg.org/d7b6kx7np/angel_of_the_skies_2013_DVDrip_Xvid_Ac3_Mi_LLENi_U.jpg&quot; rel=&quot;nofollow&quot; target=&quot;_NEW&quot;&gt;\nhttp://s24.postimg.org/d7b6kx7np/angel_of_the_skies_2013_DVDrip_Xvid_Ac3_Mi_LLENi_U.jpg&lt;/a&gt;\n &lt;a href=&quot;\nhttp://s24.postimg.org/kyrwjhbt1/angel_of_the_skies_2013_DVDrip_Xvid_Ac3_Mi_LLENi_U.jpg&quot; rel=&quot;nofollow&quot; target=&quot;_NEW&quot;&gt;\nhttp://s24.postimg.org/kyrwjhbt1/angel_of_the_skies_2013_DVDrip_Xvid_Ac3_Mi_LLENi_U.jpg&lt;/a&gt;\n &lt;a href=&quot;\nhttp://s24.postimg.org/c2h4fjl6t/angel_of_the_skies_2013_DVDrip_Xvid_Ac3_Mi_LLENi_U.jpg&quot; rel=&quot;nofollow&quot; target=&quot;_NEW&quot;&gt;\nhttp://s24.postimg.org/c2h4fjl6t/angel_of_the_skies_2013_DVDrip_Xvid_Ac3_Mi_LLENi_U.jpg&lt;/a&gt;\n &lt;a href=&quot;\nhttp://s24.postimg.org/72f2tuq6d/angel_of_the_skies_2013_DVDrip_Xvid_Ac3_Mi_LLENi_U.jpg&quot; rel=&quot;nofollow&quot; target=&quot;_NEW&quot;&gt;\nhttp://s24.postimg.org/72f2tuq6d/angel_of_the_skies_2013_DVDrip_Xvid_Ac3_Mi_LLENi_U.jpg&lt;/a&gt;\n &lt;a href=&quot;\nhttp://s24.postimg.org/snk5hgmx1/angel_of_the_skies_2013_DVDrip_Xvid_Ac3_Mi_LLENi_U.jpg&quot; rel=&quot;nofollow&quot; target=&quot;_NEW&quot;&gt;\nhttp://s24.postimg.org/snk5hgmx1/angel_of_the_skies_2013_DVDrip_Xvid_Ac3_Mi_LLENi_U.jpg&lt;/a&gt;","torrent":{"xt":"urn:btih:e797a1e6f604e61f4169b05555cc0c5f28a345c2","amp;dn":"Angel.Of.The.Skies.2013.DVDRiP.Xvid.AC3-MiLLENiUM","amp;tr":["udp%3A%2F%2Ftracker.openbittorrent.com%3A80","udp%3A%2F%2Fopen.demonii.com%3A1337","udp%3A%2F%2Ftracker.coppersurfer.tk%3A6969","udp%3A%2F%2Fexodus.desync.com%3A6969"],"infoHash":"e797a1e6f604e61f4169b05555cc0c5f28a345c2","infoHashBuffer":{"type":"Buffer","data":[231,151,161,230,246,4,230,31,65,105,176,85,85,204,12,95,40,163,69,194]},"announce":[],"urlList":[]}}